<svg width="25" height="22" viewBox="0 0 25 22" fill="none" xmlns="http://www.w3.org/2000/svg">
<path d="M23.6181 10.5C23.6181 15.9779 18.7046 20.5 12.5382 20.5C6.37179 20.5 1.45834 15.9779 1.45834 10.5C1.45834 5.02208 6.37179 0.5 12.5382 0.5C18.7046 0.5 23.6181 5.02208 23.6181 10.5Z" fill="#83E1FF" stroke="black"/>
<path d="M12.297 17.8V3.7H13.047V17.8H12.297ZM12.612 16.09C11.832 16.09 11.082 15.965 10.362 15.715C9.65196 15.455 9.10196 15.125 8.71196 14.725L9.14696 13.87C9.51696 14.23 10.012 14.535 10.632 14.785C11.262 15.025 11.922 15.145 12.612 15.145C13.272 15.145 13.807 15.065 14.217 14.905C14.637 14.735 14.942 14.51 15.132 14.23C15.332 13.95 15.432 13.64 15.432 13.3C15.432 12.89 15.312 12.56 15.072 12.31C14.842 12.06 14.537 11.865 14.157 11.725C13.777 11.575 13.357 11.445 12.897 11.335C12.437 11.225 11.977 11.11 11.517 10.99C11.057 10.86 10.632 10.69 10.242 10.48C9.86196 10.27 9.55196 9.995 9.31196 9.655C9.08196 9.305 8.96696 8.85 8.96696 8.29C8.96696 7.77 9.10196 7.295 9.37196 6.865C9.65196 6.425 10.077 6.075 10.647 5.815C11.217 5.545 11.947 5.41 12.837 5.41C13.427 5.41 14.012 5.495 14.592 5.665C15.172 5.825 15.672 6.05 16.092 6.34L15.717 7.225C15.267 6.925 14.787 6.705 14.277 6.565C13.777 6.425 13.292 6.355 12.822 6.355C12.192 6.355 11.672 6.44 11.262 6.61C10.852 6.78 10.547 7.01 10.347 7.3C10.157 7.58 10.062 7.9 10.062 8.26C10.062 8.67 10.177 9 10.407 9.25C10.647 9.5 10.957 9.695 11.337 9.835C11.727 9.975 12.152 10.1 12.612 10.21C13.072 10.32 13.527 10.44 13.977 10.57C14.437 10.7 14.857 10.87 15.237 11.08C15.627 11.28 15.937 11.55 16.167 11.89C16.407 12.23 16.527 12.675 16.527 13.225C16.527 13.735 16.387 14.21 16.107 14.65C15.827 15.08 15.397 15.43 14.817 15.7C14.247 15.96 13.512 16.09 12.612 16.09Z" fill="black"/>
</svg>
