
<svg version="1.0" xmlns="http://www.w3.org/2000/svg"
 width="277.000000pt" height="235.000000pt" viewBox="0 0 277.000000 235.000000"
 preserveAspectRatio="xMidYMid meet">

<g transform="translate(0.000000,235.000000) scale(0.100000,-0.100000)"
fill="#000000" stroke="none">
<path d="M1383 2331 c-51 -32 -172 -151 -218 -216 -78 -110 -152 -282 -186
-430 -15 -69 -39 -224 -39 -257 l0 -28 99 0 98 0 12 113 c20 197 68 381 133
512 35 69 104 169 142 204 26 24 32 54 20 99 -8 27 -20 28 -61 3z"/>
<path d="M0 2331 c0 -4 27 -11 60 -15 152 -17 219 -62 240 -159 7 -36 10 -342
8 -1002 -3 -1058 1 -989 -72 -1034 -32 -20 -112 -43 -198 -56 -21 -3 -38 -10
-38 -15 0 -6 153 -10 400 -10 225 0 400 4 400 9 0 11 -35 21 -74 21 -51 0
-142 31 -171 57 -60 57 -60 51 -63 596 -2 369 0 503 9 513 10 12 117 14 678
14 366 0 672 -4 679 -8 10 -7 12 -112 10 -523 -3 -494 -4 -515 -23 -549 -25
-43 -90 -77 -176 -91 -103 -17 -109 -19 -109 -29 0 -6 145 -10 400 -10 228 0
400 4 400 9 0 13 -26 21 -68 21 -61 0 -148 30 -181 62 -57 56 -56 30 -56 1073
l0 960 23 42 c28 54 73 77 191 100 50 10 91 21 91 26 0 4 -180 7 -400 7 -220
0 -400 -4 -400 -8 0 -4 39 -14 86 -20 135 -20 180 -49 208 -137 14 -43 16
-106 14 -470 l-3 -420 -685 0 -685 0 0 440 0 440 23 43 c29 54 90 85 205 103
42 6 77 16 77 20 0 5 -180 9 -400 9 -220 0 -400 -4 -400 -9z"/>
<path d="M2323 2203 c-24 -2 -43 -8 -43 -12 0 -4 20 -39 45 -76 130 -199 195
-480 195 -851 0 -279 -28 -475 -95 -664 -39 -109 -120 -251 -183 -321 -31 -34
-51 -64 -46 -69 14 -12 114 -31 127 -23 118 70 259 277 327 481 106 320 112
792 13 1106 -48 152 -129 304 -215 401 -31 36 -31 36 -125 28z"/>
<path d="M943 1039 c22 -310 134 -593 306 -773 48 -51 176 -146 195 -146 6 1
26 14 45 30 l34 29 -29 23 c-106 83 -218 258 -274 428 -34 104 -59 235 -72
373 l-12 127 -100 0 -99 0 6 -91z"/>
</g>
</svg>
