<svg width="214" height="179" viewBox="0 0 214 179" fill="none" xmlns="http://www.w3.org/2000/svg">
<g filter="url(#filter0_f_166_18)">
<ellipse cx="106.502" cy="89.2536" rx="46.5" ry="28.8337" fill="white" fill-opacity="0.1"/>
</g>
<path d="M79.5864 112.042L78.5504 113.752L78.561 113.759L79.5864 112.042ZM72.4184 104.042L70.6209 104.918L70.6252 104.927L70.6296 104.936L72.4184 104.042ZM72.4184 78.6975L70.6296 77.8031L70.6252 77.8119L70.6209 77.8207L72.4184 78.6975ZM79.5864 70.6975L78.5609 68.9804L78.5504 68.9868L79.5864 70.6975ZM100.642 70.6975L99.6064 72.4083L99.617 72.4146L100.642 70.6975ZM107.81 78.6975L106.013 79.5744L106.017 79.5832L106.022 79.592L107.81 78.6975ZM107.81 104.042L106.022 103.147L106.017 103.156L106.013 103.165L107.81 104.042ZM100.642 112.042L99.6169 110.324L99.6064 110.331L100.642 112.042ZM94.5624 98.1535L92.6375 97.6106L92.6311 97.6336L92.6251 97.6568L94.5624 98.1535ZM94.5624 84.5855L92.6251 85.0823L92.6328 85.1121L92.6413 85.1416L94.5624 84.5855ZM92.7704 81.0655L94.0992 79.5707L94.0992 79.5707L92.7704 81.0655ZM87.5224 81.0655L86.1937 79.5707L86.1937 79.5707L87.5224 81.0655ZM85.6664 84.5855L83.7415 84.0426L83.7368 84.0595L83.7323 84.0765L85.6664 84.5855ZM85.6664 98.1535L83.7291 98.6503L83.7351 98.6734L83.7415 98.6964L85.6664 98.1535ZM90.1464 112.794C86.4991 112.794 83.3409 111.954 80.6119 110.324L78.561 113.759C81.976 115.798 85.8578 116.794 90.1464 116.794V112.794ZM80.6225 110.331C77.9493 108.712 75.806 106.345 74.2073 103.147L70.6296 104.936C72.5295 108.736 75.1649 111.702 78.5504 113.752L80.6225 110.331ZM74.216 103.165C72.6737 100.003 71.8584 96.095 71.8584 91.3695H67.8584C67.8584 96.5427 68.7499 101.083 70.6209 104.918L74.216 103.165ZM71.8584 91.3695C71.8584 86.6441 72.6737 82.7361 74.216 79.5744L70.6209 77.8207C68.7499 81.6562 67.8584 86.1963 67.8584 91.3695H71.8584ZM74.2073 79.592C75.806 76.3945 77.9493 74.0272 80.6225 72.4082L78.5504 68.9868C75.1649 71.0372 72.5295 74.0032 70.6296 77.8031L74.2073 79.592ZM80.6119 72.4146C83.3409 70.7848 86.4991 69.9455 90.1464 69.9455V65.9455C85.8578 65.9455 81.976 66.9409 78.561 68.9804L80.6119 72.4146ZM90.1464 69.9455C93.7943 69.9455 96.926 70.7849 99.6064 72.4082L101.679 68.9868C98.3002 66.9408 94.4346 65.9455 90.1464 65.9455V69.9455ZM99.617 72.4146C102.326 74.0326 104.461 76.3928 106.013 79.5744L109.608 77.8207C107.747 74.0049 105.103 71.0318 101.668 68.9804L99.617 72.4146ZM106.022 79.592C107.6 82.7492 108.434 86.6505 108.434 91.3695H112.434C112.434 86.1899 111.519 81.6432 109.599 77.8031L106.022 79.592ZM108.434 91.3695C108.434 96.0885 107.6 99.9899 106.022 103.147L109.599 104.936C111.519 101.096 112.434 96.5492 112.434 91.3695H108.434ZM106.013 103.165C104.461 106.346 102.326 108.706 99.617 110.324L101.668 113.759C105.103 111.707 107.747 108.734 109.608 104.918L106.013 103.165ZM99.6064 110.331C96.926 111.954 93.7943 112.794 90.1464 112.794V116.794C94.4346 116.794 98.3002 115.798 101.679 113.752L99.6064 110.331ZM90.1464 104.698C91.6423 104.698 92.9839 104.16 94.0992 103.168L91.4417 100.179C91.021 100.553 90.6133 100.698 90.1464 100.698V104.698ZM94.0992 103.168C95.3045 102.097 96.0339 100.467 96.4998 98.6503L92.6251 97.6568C92.2377 99.1678 91.7724 99.8848 91.4417 100.179L94.0992 103.168ZM96.4873 98.6965C97.0283 96.7784 97.2664 94.3088 97.2664 91.3695H93.2664C93.2664 94.1476 93.0352 96.2006 92.6375 97.6106L96.4873 98.6965ZM97.2664 91.3695C97.2664 88.3943 97.0296 85.9156 96.4836 84.0294L92.6413 85.1416C93.034 86.4981 93.2664 88.5421 93.2664 91.3695H97.2664ZM96.4998 84.0888C96.0339 82.2718 95.3045 80.6421 94.0992 79.5707L91.4417 82.5603C91.7724 82.8543 92.2377 83.5713 92.6251 85.0823L96.4998 84.0888ZM94.0992 79.5707C92.9839 78.5794 91.6423 78.0415 90.1464 78.0415V82.0415C90.6133 82.0415 91.021 82.1863 91.4417 82.5603L94.0992 79.5707ZM90.1464 78.0415C88.6506 78.0415 87.309 78.5794 86.1937 79.5707L88.8512 82.5603C89.2719 82.1863 89.6796 82.0415 90.1464 82.0415V78.0415ZM86.1937 79.5707C85.0056 80.6268 84.2515 82.2346 83.7415 84.0426L87.5913 85.1284C88.0201 83.6084 88.5033 82.8696 88.8512 82.5603L86.1937 79.5707ZM83.7323 84.0765C83.2414 85.9419 83.0264 88.4019 83.0264 91.3695H87.0264C87.0264 88.5345 87.2381 86.4718 87.6006 85.0945L83.7323 84.0765ZM83.0264 91.3695C83.0264 94.3007 83.2425 96.7523 83.7291 98.6503L87.6038 97.6568C87.2371 96.2267 87.0264 94.1557 87.0264 91.3695H83.0264ZM83.7415 98.6964C84.2515 100.504 85.0056 102.112 86.1937 103.168L88.8512 100.179C88.5033 99.8695 88.0201 99.1306 87.5913 97.6106L83.7415 98.6964ZM86.1937 103.168C87.309 104.16 88.6506 104.698 90.1464 104.698V100.698C89.6796 100.698 89.2719 100.553 88.8512 100.179L86.1937 103.168ZM126.09 113.77H124.09V115.77H126.09V113.77ZM126.09 74.2175L127.468 72.7679L124.09 69.5572V74.2175H126.09ZM132.554 80.3615V82.3615H137.561L133.932 78.9119L132.554 80.3615ZM118.41 80.3615H116.41V82.3615H118.41V80.3615ZM118.41 68.9695V66.9695H116.41V68.9695H118.41ZM141.194 68.9695H143.194V66.9695H141.194V68.9695ZM141.194 113.77V115.77H143.194V113.77H141.194ZM128.09 113.77V74.2175H124.09V113.77H128.09ZM124.712 75.6672L131.176 81.8112L133.932 78.9119L127.468 72.7679L124.712 75.6672ZM132.554 78.3615H118.41V82.3615H132.554V78.3615ZM120.41 80.3615V68.9695H116.41V80.3615H120.41ZM118.41 70.9695H141.194V66.9695H118.41V70.9695ZM139.194 68.9695V113.77H143.194V68.9695H139.194ZM141.194 111.77H126.09V115.77H141.194V111.77Z" fill="white"/>
<defs>
<filter id="filter0_f_166_18" x="0.00244141" y="0.419922" width="213" height="177.667" filterUnits="userSpaceOnUse" color-interpolation-filters="sRGB">
<feFlood flood-opacity="0" result="BackgroundImageFix"/>
<feBlend mode="normal" in="SourceGraphic" in2="BackgroundImageFix" result="shape"/>
<feGaussianBlur stdDeviation="30" result="effect1_foregroundBlur_166_18"/>
</filter>
</defs>
</svg>
