<svg width="213" height="192" viewBox="0 0 213 192" fill="none" xmlns="http://www.w3.org/2000/svg">
<g filter="url(#filter0_f_166_27)">
<ellipse cx="106.098" cy="95.5029" rx="46.0974" ry="35.5" fill="white" fill-opacity="0.1"/>
</g>
<path d="M85.3945 116.275L84.3584 117.986L84.369 117.992L85.3945 116.275ZM78.2265 108.275L76.429 109.152L76.4333 109.161L76.4377 109.169L78.2265 108.275ZM78.2265 82.9309L76.4377 82.0365L76.4333 82.0453L76.429 82.0541L78.2265 82.9309ZM85.3945 74.9309L84.369 73.2138L84.3584 73.2202L85.3945 74.9309ZM106.451 74.9309L105.414 76.6417L105.425 76.648L106.451 74.9309ZM113.619 82.9309L111.821 83.8078L111.825 83.8166L111.83 83.8254L113.619 82.9309ZM113.619 108.275L111.83 107.381L111.825 107.389L111.821 107.398L113.619 108.275ZM106.451 116.275L105.425 114.558L105.414 114.564L106.451 116.275ZM100.371 102.387L98.4456 101.844L98.4391 101.867L98.4332 101.89L100.371 102.387ZM100.371 88.8189L98.4332 89.3157L98.4408 89.3455L98.4494 89.375L100.371 88.8189ZM98.5785 85.2989L99.9072 83.8041L99.9072 83.8041L98.5785 85.2989ZM93.3305 85.2989L92.0018 83.8041L92.0018 83.8041L93.3305 85.2989ZM91.4745 88.8189L89.5496 88.276L89.5448 88.2929L89.5404 88.3099L91.4745 88.8189ZM91.4745 102.387L89.5372 102.884L89.5431 102.907L89.5496 102.93L91.4745 102.387ZM95.9545 117.027C92.3072 117.027 89.149 116.188 86.42 114.558L84.369 117.992C87.784 120.032 91.6659 121.027 95.9545 121.027V117.027ZM86.4306 114.564C83.7574 112.945 81.6141 110.578 80.0154 107.381L76.4377 109.169C78.3376 112.969 80.973 115.935 84.3584 117.986L86.4306 114.564ZM80.0241 107.398C78.4817 104.236 77.6665 100.328 77.6665 95.6029H73.6665C73.6665 100.776 74.558 105.316 76.429 109.152L80.0241 107.398ZM77.6665 95.6029C77.6665 90.8775 78.4817 86.9695 80.0241 83.8078L76.429 82.0541C74.558 85.8896 73.6665 90.4297 73.6665 95.6029H77.6665ZM80.0154 83.8254C81.6141 80.6279 83.7574 78.2606 86.4306 76.6416L84.3584 73.2202C80.973 75.2706 78.3376 78.2366 76.4377 82.0365L80.0154 83.8254ZM86.42 76.648C89.149 75.0182 92.3072 74.1789 95.9545 74.1789V70.1789C91.6659 70.1789 87.784 71.1743 84.369 73.2138L86.42 76.648ZM95.9545 74.1789C99.6024 74.1789 102.734 75.0183 105.414 76.6416L107.487 73.2202C104.108 71.1742 100.243 70.1789 95.9545 70.1789V74.1789ZM105.425 76.648C108.134 78.266 110.269 80.6262 111.821 83.8078L115.416 82.0541C113.555 78.2383 110.911 75.2652 107.476 73.2138L105.425 76.648ZM111.83 83.8254C113.408 86.9826 114.243 90.8839 114.243 95.6029H118.243C118.243 90.4233 117.327 85.8766 115.407 82.0365L111.83 83.8254ZM114.243 95.6029C114.243 100.322 113.408 104.223 111.83 107.381L115.407 109.169C117.327 105.329 118.243 100.783 118.243 95.6029H114.243ZM111.821 107.398C110.269 110.58 108.134 112.94 105.425 114.558L107.476 117.992C110.911 115.941 113.555 112.968 115.416 109.152L111.821 107.398ZM105.414 114.564C102.734 116.188 99.6024 117.027 95.9545 117.027V121.027C100.243 121.027 104.108 120.032 107.487 117.986L105.414 114.564ZM95.9545 108.931C97.4503 108.931 98.792 108.393 99.9072 107.402L97.2498 104.412C96.829 104.786 96.4214 104.931 95.9545 104.931V108.931ZM99.9072 107.402C101.113 106.33 101.842 104.701 102.308 102.884L98.4332 101.89C98.0457 103.401 97.5804 104.118 97.2498 104.412L99.9072 107.402ZM102.295 102.93C102.836 101.012 103.075 98.5422 103.075 95.6029H99.0745C99.0745 98.381 98.8433 100.434 98.4456 101.844L102.295 102.93ZM103.075 95.6029C103.075 92.6277 102.838 90.149 102.292 88.2628L98.4494 89.375C98.842 90.7315 99.0745 92.7755 99.0745 95.6029H103.075ZM102.308 88.3222C101.842 86.5052 101.113 84.8755 99.9072 83.8041L97.2498 86.7937C97.5804 87.0877 98.0457 87.8047 98.4332 89.3157L102.308 88.3222ZM99.9072 83.8041C98.792 82.8128 97.4503 82.2749 95.9545 82.2749V86.2749C96.4214 86.2749 96.829 86.4197 97.2498 86.7937L99.9072 83.8041ZM95.9545 82.2749C94.4587 82.2749 93.117 82.8128 92.0018 83.8041L94.6592 86.7937C95.08 86.4197 95.4877 86.2749 95.9545 86.2749V82.2749ZM92.0018 83.8041C90.8136 84.8602 90.0596 86.468 89.5496 88.276L93.3994 89.3618C93.8281 87.8418 94.3114 87.1029 94.6592 86.7937L92.0018 83.8041ZM89.5404 88.3099C89.0495 90.1753 88.8345 92.6353 88.8345 95.6029H92.8345C92.8345 92.7679 93.0462 90.7052 93.4087 89.3279L89.5404 88.3099ZM88.8345 95.6029C88.8345 98.5341 89.0505 100.986 89.5372 102.884L93.4118 101.89C93.0452 100.46 92.8345 98.3891 92.8345 95.6029H88.8345ZM89.5496 102.93C90.0596 104.738 90.8136 106.346 92.0018 107.402L94.6592 104.412C94.3114 104.103 93.8281 103.364 93.3994 101.844L89.5496 102.93ZM92.0018 107.402C93.117 108.393 94.4587 108.931 95.9545 108.931V104.931C95.4877 104.931 95.08 104.786 94.6592 104.412L92.0018 107.402ZM125.69 118.003H123.69V120.003H125.69V118.003ZM125.69 108.723L124.332 107.255L123.69 107.848V108.723H125.69ZM141.882 93.7469L143.24 95.2152L143.253 95.2032L143.266 95.1909L141.882 93.7469ZM144.122 91.1869L142.488 90.0336L142.465 90.0665L142.443 90.1004L144.122 91.1869ZM145.146 89.2669L147.058 89.8551L147.064 89.8358L147.069 89.8164L145.146 89.2669ZM144.314 85.0429L142.991 86.5426L143.016 86.5651L143.043 86.5868L144.314 85.0429ZM137.274 85.1709L138.266 86.9074L138.289 86.8943L138.312 86.8805L137.274 85.1709ZM134.458 88.2429L133.564 90.0318L135.352 90.9262L136.247 89.1374L134.458 88.2429ZM123.066 82.5469L121.297 81.6134L120.343 83.4215L122.172 84.3358L123.066 82.5469ZM130.362 75.0589L131.381 76.7799L131.381 76.7799L130.362 75.0589ZM151.866 73.9069L151.089 75.7497L151.089 75.7497L151.866 73.9069ZM158.266 78.7709L156.654 79.9551L156.654 79.9551L158.266 78.7709ZM159.994 90.5469L158.061 90.0351L158.054 90.0619L158.047 90.0889L159.994 90.5469ZM157.818 95.1549L159.454 96.3048L159.462 96.2946L159.469 96.2843L157.818 95.1549ZM152.89 100.467L151.55 98.9818L151.544 98.9881L152.89 100.467ZM140.73 111.539L138.907 112.362L140.04 114.872L142.077 113.018L140.73 111.539ZM138.362 106.291V104.291H135.265L136.539 107.114L138.362 106.291ZM161.594 106.291H163.594V104.291H161.594V106.291ZM161.594 118.003V120.003H163.594V118.003H161.594ZM127.69 118.003V108.723H123.69V118.003H127.69ZM127.048 110.191L143.24 95.2152L140.524 92.2787L124.332 107.255L127.048 110.191ZM143.266 95.1909C144.34 94.1613 145.211 93.1851 145.801 92.2734L142.443 90.1004C142.094 90.6394 141.472 91.3699 140.498 92.303L143.266 95.1909ZM145.756 92.3403C146.332 91.5237 146.801 90.6888 147.058 89.8551L143.234 88.6788C143.15 88.9544 142.936 89.3995 142.488 90.0336L145.756 92.3403ZM147.069 89.8164C147.28 89.077 147.402 88.3354 147.402 87.6029H143.402C143.402 87.8945 143.353 88.2622 143.223 88.7175L147.069 89.8164ZM147.402 87.6029C147.402 86.0159 146.857 84.5465 145.585 83.4991L143.043 86.5868C143.221 86.734 143.402 86.9713 143.402 87.6029H147.402ZM145.637 83.5433C144.401 82.4529 142.752 82.0829 141.05 82.0829V86.0829C142.25 86.0829 142.776 86.353 142.991 86.5426L145.637 83.5433ZM141.05 82.0829C139.34 82.0829 137.725 82.5573 136.236 83.4614L138.312 86.8805C139.212 86.3339 140.114 86.0829 141.05 86.0829V82.0829ZM136.282 83.4344C134.707 84.3342 133.508 85.6701 132.669 87.3485L136.247 89.1374C136.773 88.085 137.451 87.373 138.266 86.9074L136.282 83.4344ZM135.352 86.4541L123.96 80.7581L122.172 84.3358L133.564 90.0318L135.352 86.4541ZM124.835 83.4804C126.269 80.7627 128.428 78.5282 131.381 76.7799L129.343 73.338C125.81 75.4296 123.106 78.1871 121.297 81.6134L124.835 83.4804ZM131.381 76.7799C134.24 75.0869 137.897 74.1789 142.458 74.1789V70.1789C137.377 70.1789 132.969 71.1909 129.343 73.338L131.381 76.7799ZM142.458 74.1789C145.783 74.1789 148.647 74.7196 151.089 75.7497L152.643 72.0642C149.624 70.7903 146.215 70.1789 142.458 70.1789V74.1789ZM151.089 75.7497C153.535 76.7818 155.361 78.1947 156.654 79.9551L159.878 77.5868C158.099 75.1659 155.658 73.3361 152.643 72.0642L151.089 75.7497ZM156.654 79.9551C157.912 81.6674 158.57 83.7166 158.57 86.1949H162.57C162.57 82.956 161.692 80.0558 159.878 77.5868L156.654 79.9551ZM158.57 86.1949C158.57 87.467 158.402 88.7457 158.061 90.0351L161.927 91.0587C162.354 89.4468 162.57 87.8242 162.57 86.1949H158.57ZM158.047 90.0889C157.777 91.2364 157.179 92.5465 156.167 94.0256L159.469 96.2843C160.675 94.5206 161.528 92.7588 161.941 91.005L158.047 90.0889ZM156.182 94.005C155.19 95.4155 153.666 97.0734 151.55 98.9818L154.23 101.952C156.466 99.9351 158.227 98.0517 159.454 96.3048L156.182 94.005ZM151.544 98.9881L139.384 110.06L142.077 113.018L154.237 101.946L151.544 98.9881ZM142.553 110.716L140.185 105.468L136.539 107.114L138.907 112.362L142.553 110.716ZM138.362 108.291H161.594V104.291H138.362V108.291ZM159.594 106.291V118.003H163.594V106.291H159.594ZM161.594 116.003H125.69V120.003H161.594V116.003Z" fill="white"/>
<defs>
<filter id="filter0_f_166_27" x="0.000488281" y="0.00292969" width="212.195" height="191" filterUnits="userSpaceOnUse" color-interpolation-filters="sRGB">
<feFlood flood-opacity="0" result="BackgroundImageFix"/>
<feBlend mode="normal" in="SourceGraphic" in2="BackgroundImageFix" result="shape"/>
<feGaussianBlur stdDeviation="30" result="effect1_foregroundBlur_166_27"/>
</filter>
</defs>
</svg>
