<svg width="276" height="164" viewBox="0 0 276 164" fill="none" xmlns="http://www.w3.org/2000/svg">
<g filter="url(#filter0_f_166_70)">
<ellipse cx="137.709" cy="81.5029" rx="77.6553" ry="21.5" fill="white" fill-opacity="0.1"/>
</g>
<path d="M100.584 101.272L99.5479 102.983L99.5585 102.989L100.584 101.272ZM93.416 93.272L91.6185 94.1488L91.6228 94.1577L91.6271 94.1664L93.416 93.272ZM93.416 67.928L91.6271 67.0336L91.6228 67.0423L91.6185 67.0512L93.416 67.928ZM100.584 59.928L99.5585 58.2109L99.5479 58.2173L100.584 59.928ZM121.64 59.928L120.604 61.6387L120.615 61.6451L121.64 59.928ZM128.808 67.928L127.01 68.8048L127.015 68.8137L127.019 68.8224L128.808 67.928ZM128.808 93.272L127.019 92.3776L127.015 92.3863L127.01 92.3952L128.808 93.272ZM121.64 101.272L120.615 99.5549L120.604 99.5613L121.64 101.272ZM115.56 87.384L113.635 86.8411L113.629 86.8641L113.623 86.8872L115.56 87.384ZM115.56 73.816L113.623 74.3127L113.63 74.3426L113.639 74.3721L115.56 73.816ZM113.768 70.296L115.097 68.8012L115.097 68.8012L113.768 70.296ZM108.52 70.296L107.191 68.8012L107.191 68.8012L108.52 70.296ZM106.664 73.816L104.739 73.2731L104.734 73.29L104.73 73.307L106.664 73.816ZM106.664 87.384L104.727 87.8808L104.733 87.9039L104.739 87.9269L106.664 87.384ZM111.144 102.024C107.497 102.024 104.338 101.185 101.609 99.5549L99.5585 102.989C102.974 105.029 106.855 106.024 111.144 106.024V102.024ZM101.62 99.5613C98.9469 97.9423 96.8036 95.575 95.2049 92.3776L91.6271 94.1664C93.5271 97.9663 96.1624 100.932 99.5479 102.983L101.62 99.5613ZM95.2135 92.3952C93.6712 89.2334 92.856 85.3255 92.856 80.6H88.856C88.856 85.7732 89.7475 90.3133 91.6185 94.1488L95.2135 92.3952ZM92.856 80.6C92.856 75.8745 93.6712 71.9666 95.2135 68.8048L91.6185 67.0512C89.7475 70.8867 88.856 75.4268 88.856 80.6H92.856ZM95.2049 68.8224C96.8036 65.625 98.9469 63.2577 101.62 61.6387L99.5479 58.2173C96.1624 60.2676 93.5271 63.2337 91.6271 67.0336L95.2049 68.8224ZM101.609 61.6451C104.338 60.0153 107.497 59.176 111.144 59.176V55.176C106.855 55.176 102.974 56.1714 99.5585 58.2109L101.609 61.6451ZM111.144 59.176C114.792 59.176 117.924 60.0154 120.604 61.6387L122.676 58.2173C119.298 56.1713 115.432 55.176 111.144 55.176V59.176ZM120.615 61.6451C123.324 63.2631 125.458 65.6233 127.01 68.8048L130.606 67.0512C128.744 63.2354 126.1 60.2622 122.665 58.2109L120.615 61.6451ZM127.019 68.8224C128.598 71.9796 129.432 75.881 129.432 80.6H133.432C133.432 75.4203 132.517 70.8737 130.597 67.0336L127.019 68.8224ZM129.432 80.6C129.432 85.319 128.598 89.2204 127.019 92.3776L130.597 94.1664C132.517 90.3263 133.432 85.7797 133.432 80.6H129.432ZM127.01 92.3952C125.458 95.5767 123.324 97.9369 120.615 99.5549L122.665 102.989C126.1 100.938 128.744 97.9646 130.606 94.1488L127.01 92.3952ZM120.604 99.5613C117.924 101.185 114.792 102.024 111.144 102.024V106.024C115.432 106.024 119.298 105.029 122.676 102.983L120.604 99.5613ZM111.144 93.928C112.64 93.928 113.981 93.3901 115.097 92.3988L112.439 89.4092C112.019 89.7832 111.611 89.928 111.144 89.928V93.928ZM115.097 92.3988C116.302 91.3274 117.031 89.6977 117.497 87.8807L113.623 86.8872C113.235 88.3983 112.77 89.1153 112.439 89.4092L115.097 92.3988ZM117.485 87.9269C118.026 86.0089 118.264 83.5393 118.264 80.6H114.264C114.264 83.378 114.033 85.4311 113.635 86.8411L117.485 87.9269ZM118.264 80.6C118.264 77.6248 118.027 75.1461 117.481 73.2599L113.639 74.3721C114.032 75.7286 114.264 77.7726 114.264 80.6H118.264ZM117.497 73.3192C117.031 71.5023 116.302 69.8726 115.097 68.8012L112.439 71.7908C112.77 72.0847 113.235 72.8017 113.623 74.3127L117.497 73.3192ZM115.097 68.8012C113.981 67.8099 112.64 67.272 111.144 67.272V71.272C111.611 71.272 112.019 71.4168 112.439 71.7908L115.097 68.8012ZM111.144 67.272C109.648 67.272 108.307 67.8099 107.191 68.8012L109.849 71.7908C110.269 71.4168 110.677 71.272 111.144 71.272V67.272ZM107.191 68.8012C106.003 69.8573 105.249 71.4651 104.739 73.2731L108.589 74.3589C109.018 72.8389 109.501 72.1 109.849 71.7908L107.191 68.8012ZM104.73 73.307C104.239 75.1724 104.024 77.6323 104.024 80.6H108.024C108.024 77.765 108.236 75.7023 108.598 74.325L104.73 73.307ZM104.024 80.6C104.024 83.5312 104.24 85.9828 104.727 87.8808L108.601 86.8872C108.235 85.4572 108.024 83.3861 108.024 80.6H104.024ZM104.739 87.9269C105.249 89.7349 106.003 91.3427 107.191 92.3988L109.849 89.4092C109.501 89.1 109.018 88.3611 108.589 86.8411L104.739 87.9269ZM107.191 92.3988C108.307 93.3901 109.648 93.928 111.144 93.928V89.928C110.677 89.928 110.269 89.7832 109.849 89.4092L107.191 92.3988ZM147.024 103L146.601 104.955L147.024 103ZM138.704 99.992L136.886 99.1565L136.111 100.843L137.735 101.742L138.704 99.992ZM143.824 88.856L144.824 87.1243L142.923 86.0261L142.006 88.0205L143.824 88.856ZM149.84 91.352L149.327 93.2851L149.35 93.2912L149.373 93.2968L149.84 91.352ZM160.016 91.288L160.938 93.0624L160.951 93.0558L160.964 93.0489L160.016 91.288ZM160.464 86.424L159.334 88.0746L159.364 88.0954L159.396 88.115L160.464 86.424ZM150.416 85.592H148.416V87.592H150.416V85.592ZM150.416 76.312L148.99 74.9095L148.416 75.4932V76.312H150.416ZM162 64.536L163.932 64.0222L163.032 60.6346L160.574 63.1335L162 64.536ZM163.344 69.592V71.592H165.945L165.276 69.0782L163.344 69.592ZM141.008 69.592H139.008V71.592H141.008V69.592ZM141.008 58.2V56.2H139.008V58.2H141.008ZM174.416 58.2H176.416V56.2H174.416V58.2ZM174.416 67.48L175.841 68.8825L176.416 68.2988V67.48H174.416ZM162.832 79.256L161.846 80.9963L163.181 81.7525L164.257 80.6585L162.832 79.256ZM155.6 75.16V73.16H148.01L154.614 76.9003L155.6 75.16ZM174.672 96.024L172.97 94.9724L172.963 94.9836L172.957 94.995L174.672 96.024ZM168.016 101.784L167.131 99.9901L167.121 99.9951L168.016 101.784ZM156.368 102.024C153.445 102.024 150.472 101.699 147.446 101.045L146.601 104.955C149.89 105.666 153.146 106.024 156.368 106.024V102.024ZM147.446 101.045C144.446 100.396 141.863 99.4548 139.672 98.2422L137.735 101.742C140.323 103.175 143.286 104.238 146.601 104.955L147.446 101.045ZM140.521 100.827L145.641 89.6915L142.006 88.0205L136.886 99.1565L140.521 100.827ZM142.823 90.5877C144.892 91.7832 147.061 92.684 149.327 93.2851L150.352 89.4189C148.437 88.9106 146.595 88.1475 144.824 87.1243L142.823 90.5877ZM149.373 93.2968C151.634 93.8395 153.797 94.12 155.856 94.12V90.12C154.159 90.12 152.312 89.8885 150.306 89.4072L149.373 93.2968ZM155.856 94.12C157.757 94.12 159.492 93.8143 160.938 93.0624L159.093 89.5136C158.405 89.871 157.367 90.12 155.856 90.12V94.12ZM160.964 93.0489C161.755 92.6227 162.456 92.0386 162.953 91.2551C163.455 90.4622 163.68 89.5753 163.68 88.664H159.68C159.68 88.9047 159.626 89.0311 159.574 89.1129C159.517 89.204 159.385 89.356 159.067 89.5271L160.964 93.0489ZM163.68 88.664C163.68 87.016 162.939 85.6218 161.531 84.733L159.396 88.115C159.55 88.2123 159.598 88.2864 159.618 88.3222C159.638 88.36 159.68 88.4545 159.68 88.664H163.68ZM161.593 84.7734C160.257 83.8596 158.368 83.592 156.368 83.592V87.592C158.207 87.592 159.048 87.8791 159.334 88.0746L161.593 84.7734ZM156.368 83.592H150.416V87.592H156.368V83.592ZM152.416 85.592V76.312H148.416V85.592H152.416ZM151.841 77.7145L163.425 65.9385L160.574 63.1335L148.99 74.9095L151.841 77.7145ZM160.067 65.0498L161.411 70.1058L165.276 69.0782L163.932 64.0222L160.067 65.0498ZM163.344 67.592H141.008V71.592H163.344V67.592ZM143.008 69.592V58.2H139.008V69.592H143.008ZM141.008 60.2H174.416V56.2H141.008V60.2ZM172.416 58.2V67.48H176.416V58.2H172.416ZM172.99 66.0775L161.406 77.8535L164.257 80.6585L175.841 68.8825L172.99 66.0775ZM163.817 77.5157L156.585 73.4197L154.614 76.9003L161.846 80.9963L163.817 77.5157ZM155.6 77.16H159.568V73.16H155.6V77.16ZM159.568 77.16C164.935 77.16 168.684 78.3627 171.132 80.4561L173.731 77.4159C170.291 74.4746 165.464 73.16 159.568 73.16V77.16ZM171.132 80.4561C173.619 82.5829 174.848 85.2643 174.848 88.664H178.848C178.848 84.1277 177.132 80.3238 173.731 77.4159L171.132 80.4561ZM174.848 88.664C174.848 90.8236 174.241 92.9162 172.97 94.9724L176.373 97.0756C178.003 94.4385 178.848 91.6244 178.848 88.664H174.848ZM172.957 94.995C171.788 96.9426 169.897 98.6268 167.131 99.9901L168.9 103.578C172.193 101.955 174.739 99.7987 176.386 97.053L172.957 94.995ZM167.121 99.9951C164.506 101.303 160.96 102.024 156.368 102.024V106.024C161.332 106.024 165.552 105.252 168.91 103.573L167.121 99.9951Z" fill="white"/>
<defs>
<filter id="filter0_f_166_70" x="0.0541077" y="0.00292969" width="275.311" height="163" filterUnits="userSpaceOnUse" color-interpolation-filters="sRGB">
<feFlood flood-opacity="0" result="BackgroundImageFix"/>
<feBlend mode="normal" in="SourceGraphic" in2="BackgroundImageFix" result="shape"/>
<feGaussianBlur stdDeviation="30" result="effect1_foregroundBlur_166_70"/>
</filter>
</defs>
</svg>
